REM MD5 0553e34ec86bcd02935dff1dc8b426fc
FILE "Euro Demo 11 (Europe).bin" BINARY
  TRACK 01 MODE2/2352
    INDEX 01 00:00:00
  TRACK 02 AUDIO
    INDEX 00 09:11:62
    INDEX 01 09:13:62
  TRACK 03 AUDIO
    INDEX 00 12:06:16
    INDEX 01 12:08:16
REM LEADOUT 15:04:20
